<svg height="166" viewBox="0 0 250 166" width="250" xmlns="http://www.w3.org/2000/svg"><g fill="none" fill-rule="nonzero"><g fill="#387ed1" opacity=".1" transform="translate(37.203559)"><path d="m.40400207 65.0629674h19.52291933v26.6121938h-18.09544533c-.04617167.2751062-.09234333.5482886-.14428645.8233947h18.23973178v21.4582821c-.0307811 0-.0615623-.023086-.0904195-.034629-.5130186-.203925-1.0260371-.420034-1.5390556-.648327-.1096577-.05002-.2173916-.101963-.3289731-.150058-.5130185-.242402-1.026037-.498911-1.5390555-.769528-.1789152-.094267-.3578304-.192382-.532898-.292421-2.8480817-1.589216-5.4366293-3.604261-7.6760394-5.975383-.06733368-.063486-.1288959-.132743-.19238194-.192382-.31165874-.338592-.61754602-.681032-.91381421-1.031167-.11158153-.128896-.21931541-.259715-.32897312-.384764-.35013513-.427088-.68872735-.869566-1.01577664-1.313968-.05001931-.067334-.09619097-.132744-.14428646-.192382-1.33975252-1.853927-2.45078096-3.862821-3.30896937-5.9830786-.02693347-.063486-.05194312-.1327435-.07695278-.1923819-.26548707-.6733368-.5059645-1.3562927-.71373699-2.0527153-.0884957-.2904968-.17506757-.5771458-.24817271-.8791855-.02693347-.0865719-.04809548-.1750676-.07118132-.2616394-1.0811865-4.26126-1.20623476-8.6898923-1.20623476-13.0973625 0-.5130185 0-1.026037 0-1.5390555.01539056-1.7994125.03655257-3.596901.06348604-5.3924658.01026037-.4617167.01987947-.9253572.02885729-1.3909214.02693347-1.1786601.06540986-2.3598852.11542917-3.5436754.01154291-.3270493.02693347-.6560224.04424784-.9811479.00769528-.1885343.01731438-.3770686.02885729-.5656029.03462875-.6810321.07567023-1.3575752.12312444-2.0296295z"/><path d="m19.9269214 35.432301h-10.70990265c1.74173945-2.7231749 3.64390795-5.3403429 5.69642925-7.8376402 1.5929225-1.9546005 3.270493-3.8591817 5.0134734-5.6945055z"/><path d="m19.9269214 36.2518481v27.9877246h-19.4613571c0-.0808004.01154291-.1635246.01923819-.244325.01731437-.2212393.03462875-.4405547.05386694-.6617939.0192382-.2577918.04424785-.5155836.0692575-.7695278.02500965-.2539441.05001931-.5617552.08080042-.840709s.05579076-.5617553.08657187-.8407091.06156222-.5579076.09619097-.8349376.06540986-.5579077.10388625-.8349377c.02885729-.2289345.05771458-.4597928.09041951-.6906511.04424784-.3251255.09041951-.650251.138515-.9734526 0-.0500193.01539055-.0981148.02308583-.1462103.35160332-2.3657559.82939192-4.71103 1.43132163-7.0257885.6321089-2.4278237 1.43901232-4.8067422 2.41439335-7.1181318 1.03643463-2.42182 2.25046587-4.7637172 3.63217103-7.0065502z"/><path d="m24.5902596 65.0629674v26.6121938h41.7007093v-26.6121938zm0 27.4355885v22.8549741c.2385536.048096.4732596.096191.7098894.136592.3174302.061562.6367842.117353.9619097.165448l.1923819.026934c.1269721.021162.255868.038476.3847639.053866.3212778.046172.6425557.080801.9619097.111582.1500579.015391.3058873.026933.457869.0404l.3712971.026934c.2020011.01539.4020783.026933.6021555.034628.1231245 0 .2462489.00962.3712972.013467.1250482.003848.1923819 0 .2924205 0h.3636019.4944216.2116201c.1654485 0 .3308969 0 .4944216-.01539h.0096191c.1154291 0 .2289345 0 .3443636-.013467.0326772.001906.0654377.001906.0981148 0 .096191 0 .192382 0 .2847253-.011543.0217671-.001776.0436428-.001776.0654099 0 .2135439-.013467.4290117-.030781.6464033-.050019.2173916-.019239.4232403-.042324.6406318-.06541l.4367071-.053867c1.7845271-.24984 3.5492033-.625275 5.2808842-1.123511 3.8918867-1.085034 7.6952776-2.602927 11.5852404-3.712971 5.0250163-1.433246 10.5810068-2.139287 15.4367269-.394383v-18.0242641zm41.7007093-57.0662549v-35.42905809c-4.5650183-.05022548-9.1177409.48314517-13.5475362 1.58715101-10.5598447 2.65294696-20.0423505 8.40709079-28.1531731 15.75608088v18.0839024h2.098887v.8214709h-2.098887v27.9877246h41.7007093v-27.9877246h-31.0158163v-.8233947zm53.5745231-11.9680805c-2.612547-.0923433-5.209703-.9176618-7.560611-2.1970017-4.490194-2.4413269-8.080041-6.2158605-12.089281-9.3978578-8.3301377-6.63140549-18.6610479-10.63487367-29.259369-11.62756448v35.19050448h59.524896l.148134-.1558294zm5.423247-.9619097 5.750296 6.3120515v-7.9723076c-1.935363.244325-3.620628.8118518-5.750296 1.6525608zm5.750296 98.5264872v-28.5302421h-12.262425c-.030781-.1212006-.06541-.244325-.103886-.3674495.036552.1231245.069257.2462489.101962.3674495h-47.818455v20.6310391c.4540214.336669.9022713.692575 1.3466736 1.050406.4796723.392459.9561382.789407 1.4293978 1.190844l.4771072.394383c.2289345.192382.4617167.384764.692575.567527.4629992.37322.9292048.742594 1.3986167 1.108119.234706.184687.4706945.366167.7079655.544441 3.75763 2.871792 7.721098 5.463735 11.8584228 7.754916.927281.517508 1.864181 1.015777 2.8068525 1.502503.6271652.323202 1.2588192.639991 1.8949621.950367.9542145.465564 1.9161242.914456 2.8857291 1.346674 8.9391797 4.012679 18.3918967 6.765621 28.0877637 8.18008 2.152112.316789 4.313844.566885 6.485195.750289v-17.445194h.192382zm-60.082804-84.7769499v27.9877246h60.082804v-27.9877246zm0 28.8072717v26.6160414h60.082804v-26.6121938zm64.746142-44.2555415v8.9072838l7.337447-8.0550318c-2.431708-.401437-4.877523-.685521-7.337447-.852252zm0 44.2593891v26.6121938h58.436014v-26.6121938zm58.230166 58.0762606.205848-30.6406721h-58.436014v46.2813231c3.764006.156522 7.533701.110926 11.29282-.136591h.06541c1.795564-.115429 3.582793-.279595 5.361684-.492498h.040401c9.493156-1.105019 18.775206-3.584466 27.554865-7.360533m25.394416-61.3563719c-.221881-.5130185-.449532-1.026037-.682956-1.5390555-.434783-.9619097-.892652-1.8968859-1.365912-2.8299383h-4.559452v26.6102699h11.525602c-.009619-7.5375244-1.918048-15.232802-4.917282-22.2412761zm-6.60832 23.0646708v26.3563261c3.245484-3.110816 5.990774-6.671806 7.964613-10.742608 2.375917-4.903815 3.462875-10.2097094 3.553294-15.6156419zm0-35.1905045v6.9257499h4.132364c-1.252668-2.3807887-2.632103-4.6926913-4.132364-6.9257499zm-39.630679-31.2813034c-.303964-.117353-.609851-.234706-.915738-.3462875-3.225221-1.1919782-6.521283-2.1827242-9.869194-2.9665295l-11.231258 12.323987-.219315.2366298.144286.1558294h39.97312c-5.56754-3.8310743-11.570171-6.9877027-17.881901-9.4036292zm19.055431 10.2251001h-41.706481l-.819547.7483657v27.2393589h7.185465 51.250549v-13.1974011c-4.634195-5.6041987-9.9831-10.5766751-15.909986-14.7903235z"/><path d="m19.9269214 50.3707587v13.868814h-19.4613571c0-.0808004.01154291-.1635246.01923819-.244325.01731437-.2212393.03462875-.4405547.05386694-.6617939.0192382-.2577918.04424785-.5155836.0692575-.7695278.02500965-.2539441.05001931-.5617552.08080042-.840709s.05579076-.5617553.08657187-.8407091.06156222-.5579076.09619097-.8349376.06540986-.5579077.10388625-.8349377c.02885729-.2289345.05771458-.4597928.09041951-.6906511.04424784-.3251255.09041951-.650251.138515-.9734526 0-.0500193.01539055-.0981148.02308583-.1462103.35160332-2.3657559.82939192-4.71103 1.43132163-7.0257885z"/><path d="m.40400207 65.0629674h19.52291933v26.6121938h-18.09544533c-.04617167.2751062-.09234333.5482886-.14428645.8233947h18.23973178v21.4582821c-.0307811 0-.0615623-.023086-.0904195-.034629-.5130186-.203925-1.0260371-.420034-1.5390556-.648327-.1096577-.05002-.2173916-.101963-.3289731-.150058-.5130185-.242402-1.026037-.498911-1.5390555-.769528-.1789152-.094267-.3578304-.192382-.532898-.292421-2.8480817-1.589216-5.4366293-3.604261-7.6760394-5.975383-.06733368-.063486-.1288959-.132743-.19238194-.192382-.31165874-.338592-.61754602-.681032-.91381421-1.031167-.11158153-.128896-.21931541-.259715-.32897312-.384764-.35013513-.427088-.68872735-.869566-1.01577664-1.313968-.05001931-.067334-.09619097-.132744-.14428646-.192382-1.33975252-1.853927-2.45078096-3.862821-3.30896937-5.9830786-.02693347-.063486-.05194312-.1327435-.07695278-.1923819-.26548707-.6733368-.5059645-1.3562927-.71373699-2.0527153-.0884957-.2904968-.17506757-.5771458-.24817271-.8791855-.02693347-.0865719-.04809548-.1750676-.07118132-.2616394-1.0811865-4.26126-1.20623476-8.6898923-1.20623476-13.0973625 0-.5130185 0-1.026037 0-1.5390555.01539056-1.7994125.03655257-3.596901.06348604-5.3924658.01026037-.4617167.01987947-.9253572.02885729-1.3909214.02693347-1.1786601.06540986-2.3598852.11542917-3.5436754.01154291-.3270493.02693347-.6560224.04424784-.9811479.00769528-.1885343.01731438-.3770686.02885729-.5656029.03462875-.6810321.07567023-1.3575752.12312444-2.0296295z"/><path d="m39.2690016 40.2610877v23.978485h-14.6806658v-23.978485h2.0931155v-8.1185179h8.5917774v8.1185179z"/><path d="m24.588336 65.061044h14.678742v26.612194h-14.678742z"/><path d="m24.5902596 92.4985559h14.678742v22.1239231c-1.7314958.498517-3.4962378.873324-5.2808842 1.121587-.1462103.021162-.2904968.038476-.436707.053867-.2154678.025009-.4290118.048095-.6425557.067333l-.6444795.051944h-.0654099l-.2847252.01539h-.0981148c-.1154292 0-.2289345.013467-.3443637.015391h-.0096191c-.1654485 0-.3289731.011543-.4944216.01539h-.2116201c-.1635247 0-.3270493 0-.4944216 0h-.3616781-.2943443c-.1250483 0-.2481727 0-.373221-.01539-.1975121-.007696-.3975893-.019239-.6002316-.034629l-.3712972-.026934c-.1539055-.011543-.3078111-.026933-.4597928-.042324-.3232017-.028216-.6438383-.064768-.9619097-.109657l-.3847639-.053867-.1923819-.026934c-.3212779-.048095-.6406319-.101962-.9619097-.163524-.2385537-.042324-.4732596-.09042-.7098894-.140439z"/><path d="m118.932439 37.429226h12.104672v26.808423h-12.104672z"/><path d="m131.039035 65.0610436v26.6141176h-60.082804v-11.4794303h32.002736v6.7718443h15.973472v-21.9065316z"/><path d="m131.229493 121.034569c-.063486 0-.126972 0-.192382-.011543v17.458661c-2.168786-.178274-4.329876-.427729-6.483271-.748365-9.699233-1.413964-19.155656-4.165559-28.0993067-8.176233-2.5817656-1.164552-5.1109468-2.433631-7.5875437-3.807239-4.1360151-2.292338-8.0987606-4.884229-11.8564989-7.754916-.9465192-.723356-1.8789303-1.462744-2.7972335-2.218163-.6367842-.527127-1.2677969-1.065796-1.9103526-1.587151-.4424785-.359755-.8907284-.715661-1.3466736-1.054253v-20.6368111h47.818455c-.034629-.1231244-.06541-.244325-.100039-.3674495.036553.1231245.071182.2443251.101963.3674495h12.262425v28.5225461c.063486.001924.126972.007696.190458.013467z"/><path d="m162.608911 35.432301h-7.887659v-2.4509459h3.534056v-7.3008946c.306528.112864.611774.2282932.915738.3462875v6.9546071h3.435941z"/><path d="m181.614323 64.2395727h-38.726485c.003795.0006751.007748.0006751.011543 0h-.017314-7.179694v-26.8084233h2.035401v19.8153398h9.299743v-11.7352983h7.685658v-9.2593428h7.88766v9.2651142h7.681811v11.7352984h11.323601z"/><path d="m135.702373 65.0629674v26.6121938h45.913874v-26.6121938zm58.370604 57.9358216.06541-21.065823h-12.52214v-9.4267148h-45.913874v46.2736278c3.764006.156522 7.533701.110926 11.29282-.136591h.06541c1.795564-.115429 3.582793-.279595 5.361684-.492498h.040401c9.493156-1.105019 18.775206-3.584466 27.554865-7.360533"/><path d="m199.611653 92.4985559h10.709903c-.092343 5.4040087-1.177377 10.7118261-3.553294 15.6137181-1.973839 4.072726-4.719129 7.633716-7.964613 10.744532v-16.929611h.808004z"/><path d="m210.329251 91.6751612h-10.717598v-22.2412761h5.800316c2.999234 7.0084741 4.907663 14.7037517 4.917282 22.2412761z"/><path d="m124.55384 44.882102h6.485195v8.405167h-6.485195z"/><path d="m124.55384 62.30421h6.485195v1.935362h-6.485195z"/><path d="m124.55384 65.061044h6.485195v5.64641h-6.485195z"/><path d="m124.55384 79.726319h6.485195v8.405167h-6.485195z"/><path d="m124.55384 97.148427h6.485195v8.405167h-6.485195z"/><path d="m131.039035 121.021102c.063486 0 .126972 0 .192382.013467-.063486 0-.126972 0-.192382-.011543v1.952677h-6.485195v-8.405167h6.485195z"/><path d="m131.039035 131.990721v6.490966c-2.170069-.178274-4.3318-.427729-6.485195-.748365v-5.742601z"/><path d="m70.956231 91.057615h27.793419v1h-27.793419z"/><path d="m70.956231 92.496632h27.793419v2.366298h-27.793419z"/><path d="m70.956231 102.61977h27.793419v3.805315h-27.793419z"/><path d="m98.7496499 114.181924v3.805315h-21.7391592c-.9465192-.720791-1.8789303-1.46082-2.7972335-2.220087-.638708-.525203-1.2697208-1.063873-1.9103526-1.585228z"/><path d="m98.7496499 125.742155v3.814934h-2.2951166c-2.5817656-1.164552-5.1109468-2.433631-7.5875437-3.807239z"/><path d="m146.995193 67.640885h5.471342v5.471342h-5.471342z"/><path d="m28.530242 42.148355h5.471342v5.471342h-5.471342z"/><path d="m28.530242 54.857106h5.471342v5.471342h-5.471342z"/><path d="m28.530242 67.565857h5.471342v5.471342h-5.471342z"/><path d="m28.530242 80.272684h5.471342v5.471342h-5.471342z"/><path d="m28.530242 92.981435h5.471342v5.471342h-5.471342z"/><path d="m28.530242 105.690186h5.471342v5.471342h-5.471342z"/><path d="m167.8821 67.640885h5.471342v5.471342h-5.471342z"/><path d="m146.995193 81.136479h5.471342v5.471342h-5.471342z"/><path d="m167.8821 81.136479h5.471342v5.471342h-5.471342z"/><path d="m146.995193 94.630148h5.471342v5.471342h-5.471342z"/><path d="m167.8821 94.630148h5.471342v5.471342h-5.471342z"/><path d="m146.995193 108.125741h5.471342v5.471342h-5.471342z"/><path d="m167.8821 108.125741h5.471342v5.471342h-5.471342z"/><path d="m146.995193 121.621334h5.471342v5.471342h-5.471342z"/><path d="m167.8821 121.621334h5.471342v5.471342h-5.471342z"/><path d="m146.995193 138.643288v-3.528285h5.469418v3.026168z"/><path d="m1.20431095 57.3965471v3.1300542h18.72261045v-3.1300542zm1.864181 2.9338246h-1.53905553v-2.7356712h1.53905553zm1.864181 0h-1.53905553v-2.7356712h1.53905553zm1.86033336 0h-1.53905552v-2.7356712h1.53905552zm1.864181 0h-1.53905552v-2.7356712h1.53905552zm1.86225719 0h-1.53905553v-2.7356712h1.53905553zm1.864181 0h-1.5390555v-2.7356712h1.5390555zm1.864181 0h-1.5390555v-2.7356712h1.5390555zm1.8622572 0h-1.5390556v-2.7356712h1.5390556zm1.8622572 0h-1.5390556v-2.7356712h1.5390556zm1.864181 0h-1.5390556v-2.7356712h1.5390556z"/><path d="m1.20431095 66.5077558v3.1300542h18.72261045v-3.1300542zm1.864181 2.9338246h-1.53905553v-2.7356712h1.53905553zm1.864181 0h-1.53905553v-2.7356712h1.53905553zm1.86033336 0h-1.53905552v-2.7356712h1.53905552zm1.864181 0h-1.53905552v-2.7356712h1.53905552zm1.86225719 0h-1.53905553v-2.7356712h1.53905553zm1.864181 0h-1.5390555v-2.7356712h1.5390555zm1.864181 0h-1.5390555v-2.7356712h1.5390555zm1.8622572 0h-1.5390556v-2.7356712h1.5390556zm1.8622572 0h-1.5390556v-2.7356712h1.5390556zm1.864181 0h-1.5390556v-2.7356712h1.5390556z"/><path d="m1.20431095 75.6208883v3.1281304h18.72261045v-3.1281304zm1.864181 2.929977h-1.53905553v-2.7356712h1.53905553zm1.864181 0h-1.53905553v-2.7356712h1.53905553zm1.86033336 0h-1.53905552v-2.7356712h1.53905552zm1.864181 0h-1.53905552v-2.7356712h1.53905552zm1.86225719 0h-1.53905553v-2.7356712h1.53905553zm1.864181 0h-1.5390555v-2.7356712h1.5390555zm1.864181 0h-1.5390555v-2.7356712h1.5390555zm1.8622572 0h-1.5390556v-2.7356712h1.5390556zm1.8622572 0h-1.5390556v-2.7356712h1.5390556zm1.864181 0h-1.5390556v-2.7356712h1.5390556z"/><path d="m1.20431095 84.732097v3.1281304h18.72261045v-3.1281304zm1.864181 2.9319008h-1.53905553v-2.7395189h1.53905553zm1.864181 0h-1.53905553v-2.7395189h1.53905553zm1.86033336 0h-1.53905552v-2.7395189h1.53905552zm1.864181 0h-1.53905552v-2.7395189h1.53905552zm1.86225719 0h-1.53905553v-2.7395189h1.53905553zm1.864181 0h-1.5390555v-2.7395189h1.5390555zm1.864181 0h-1.5390555v-2.7395189h1.5390555zm1.8622572 0h-1.5390556v-2.7395189h1.5390556zm1.8622572 0h-1.5390556v-2.7395189h1.5390556zm1.864181 0h-1.5390556v-2.7395189h1.5390556z"/><path d="m1.29473046 93.8394581c.07310513.2962681.15967701.5886887.2481727.8791854v-.681032h1.53905552v2.7337473h-.82531852c.02308583.0654099.04809548.1327436.07502895.192382h17.60294749v-3.1242827zm3.65525686 2.9319007h-1.53905552v-2.7337473h1.53905552zm1.86033336 0h-1.53905552v-2.7337473h1.53905552zm1.864181 0h-1.53905552v-2.7337473h1.53905552zm1.86225722 0h-1.53905556v-2.7337473h1.53905556zm1.864181 0h-1.5390556v-2.7337473h1.5390556zm1.864181 0h-1.5390556v-2.7337473h1.5390556zm1.8622571 0h-1.5390555v-2.7337473h1.5390555zm1.8622572 0h-1.5390555v-2.7337473h1.5390555zm1.864181 0h-1.5390555v-2.7337473h1.5390555z"/><path d="m5.63101939 102.950667c.0500193.061562.09619097.130819.14428645.192382h1.01770047v1.313968l.32897312.384764v-1.706428h1.53905552v2.758757h-.63293659c.06156222.063486.12120063.13082.19238194.192382h11.7025934v-3.135825zm4.89804421 2.943443h-1.53905554v-2.747214h1.53905554zm1.864181 0h-1.5390555v-2.747214h1.5390555zm1.864181 0h-1.5390555v-2.747214h1.5390555zm1.8622572 0h-1.5390556v-2.747214h1.5390556zm1.8622571 0h-1.5390555v-2.747214h1.5390555zm1.864181 0h-1.5390555v-2.747214h1.5390555z"/><path d="m15.9022912 112.061875c.1769914.100039.3559066.192382.5348218.290497v-.096191h1.5390555v.867643c.1115815.048095.2173916.100038.3270493.150058v-1.017701h1.5390555v1.666028c.0292585.013199.0594872.024133.0904195.032705v-1.893039z"/><path d="m131.037111 121.021102h.192382zm-12.364387-28.8899956c.036552.1231245.069257.2462489.101962.3674495-.028857-.1212006-.063486-.244325-.101962-.3674495zm-91.9835774-56.6988054v.8195471h8.5937012v-.8233947zm104.3498884 85.588801h.192382zm-12.366311-28.8899956c.036552.1231245.069257.2462489.101962.3674495-.028857-.1212006-.063486-.244325-.101962-.3674495zm12.364387 28.8899956h.192382zm-12.364387-28.8899956c.036552.1231245.069257.2462489.101962.3674495-.028857-.1212006-.063486-.244325-.101962-.3674495z"/><ellipse cx="154.888624" cy="162.989223" rx="18.745696" ry="3.010777"/></g><g transform="translate(36 34)"><path d="m165.799814 1.28378541h-62.093932v-.32614994c.000001-.25398045-.10058-.49755879-.279615-.67715036s-.421859-.28048511-.675053-.28048511h-26.2464676c-.2531942 0-.4960181.10089354-.6750531.28048511s-.2796155.42316991-.2796147.67715036v.32614994h-62.3498922c-1.113959-.00000076-2.1822932.44389166-2.9699811 1.23402582-.78768794.79013417-1.2302053 1.86178629-1.2302053 2.97920474v85.28975343c0 1.1174185.44251736 2.1890706 1.2302053 2.9792048.7876879.7901341 1.8560221 1.2340258 2.9699811 1.2340258h152.5996096c2.319708 0 4.200204-1.8863335 4.200204-4.2132449v-85.28973913c0-2.32690298-1.880487-4.21323056-4.200186-4.21323056z" fill="#3f3d56"/><path d="m16.4797054 9c-.2674484.00303892-.4819969.22106741-.4797054.48746762v82.02506478c-.0022915.2664002.212257.4844287.4797054.4874676h146.0405896c.267447-.0030405.481995-.221068.479705-.4874676v-82.02506478c.00229-.26639957-.212258-.48442714-.479705-.48746762z" fill="#fff"/><circle cx="89.5" cy="4.5" fill="#387ed1" r="1.5"/><path d="m172.978723 88.7396747h-14.64539v-1.5823261c0-.0869044-.093666-.1573486-.20922-.1573486h-5.021276c-.115554 0-.20922.0704442-.20922.1573486v1.5823351h-3.138297v-1.5823351c0-.0869044-.093666-.1573486-.20922-.1573486h-5.021277c-.115553 0-.20922.0704442-.20922.1573486v1.5823351h-3.138297v-1.5823351c0-.0869044-.093666-.1573486-.20922-.1573486h-5.021276c-.115554 0-.20922.0704442-.20922.1573486v1.5823351h-3.1383v-1.5823351c0-.0869044-.093666-.1573486-.20922-.1573486h-5.021277c-.115553 0-.20922.0704442-.20922.1573486v1.5823351h-3.138296v-1.5823351c0-.0869044-.093667-.1573486-.20922-.1573486h-5.021277c-.115554 0-.20922.0704442-.20922.1573486v1.5823351h-3.138297v-1.5823351c0-.0869044-.093666-.1573486-.20922-.1573486h-5.021276c-.115554 0-.20922.0704442-.20922.1573486v1.5823351h-3.138303v-1.5823351c0-.0869044-.093666-.1573486-.20922-.1573486h-39.3333304c-.1155537 0-.20922.0704442-.20922.1573486v1.5823351h-3.1382968v-1.5823351c0-.0869044-.0936663-.1573486-.20922-.1573486h-5.0212767c-.1155537 0-.20922.0704442-.20922.1573486v1.5823351h-3.1382997v-1.5823351c0-.0869044-.0936663-.1573486-.2092199-.1573486h-5.0212767c-.1155537 0-.20922.0704442-.20922.1573486v1.5823351h-3.1382968v-1.5823351c0-.0869044-.0936663-.1573486-.20922-.1573486h-5.0212767c-.1155536 0-.2092199.0704442-.2092199.1573486v1.5823351h-3.1382969v-1.5823351c0-.0869044-.0936663-.1573486-.2092199-.1573486h-5.0212767c-.1155537 0-.20922.0704442-.20922.1573486v1.5823351h-3.1382997v-1.5823351c0-.0869044-.0936663-.1573486-.20922-.1573486h-5.0212766c-.1155537 0-.20922.0704442-.20922.1573486v1.5823351h-3.1382911v-1.5823351c0-.0869044-.0936663-.1573486-.20922-.1573486h-5.0212795c-.1155537 0-.20922.0704442-.20922.1573486v1.5823351h-9.62411334c-2.77318516 0-5.02127666 1.6907437-5.02127666 3.7763747v1.7075878c0 2.0856251 2.24810583 3.7763538 5.02127666 3.7763538h166.95744634c2.773185 0 5.021277-1.6907407 5.021277-3.7763538v-1.7075878c0-2.08564-2.248103-3.7763837-5.021277-3.7763837z" fill="#3f3d56"/><rect fill="#e6e6e6" height="53" rx="3.56223" width="55" x="92" y="25"/><path d="m0 34h107v35h-107z" fill="#387ed1"/><g fill="#fff"><path d="m21 38h6v6h-6z"/><path d="m38 41h49v1h-49z"/><path d="m21 48h6v6h-6z"/><path d="m38 51h49v1h-49z"/><path d="m21 58h6v6h-6z"/><path d="m38 61h49v1h-49z"/></g></g><path d="m33.6162333 0h-.1103329c-4.389779 0-8.2720266 2.3105524-10.5051648 5.7200439-2.2331383-3.4094915-6.1153859-5.7200439-10.5051649-5.7200439h-.1103329c-6.85654231.06499413-12.38151569 5.61026692-12.3852378 12.4307426 0 4.0694403 1.79180658 9.8436264 5.28568231 14.5949649 6.65675269 9.0534438 17.71505329 16.9742925 17.71505329 16.9742925s11.0583005-7.9193854 17.7135821-16.9742925c3.4953468-4.7513385 5.2856823-10.5255246 5.2856823-14.5949649-.0037141-6.81991086-5.5277999-12.36495151-12.3837667-12.4307426zm-1.0814172 28.1616202c-1.021258-.0038275-1.9351622-.6251624-2.3006284-1.5641252h-2.6192222c-.3535842-.0021661-.666759-.2251586-.7796003-.5551054l-.8045593-2.3866642-2.5458135 8.7588118c-.1018309.3463468-.4236766.584901-.7898775.5854628h-.0513861c-.3833301-.0182434-.7015514-.2978263-.7634504-.6707524l-2.6236267-15.5371695-1.917435 9.1939336c-.0904709.359402-.4182199.6117217-.7942821.6114833h-3.6895209c-.3012255.0125529-.5851893-.1385247-.7396032-.3934921-.154414-.2549674-.154414-.5727691 0-.8277365.1544139-.2549674.4383777-.406045.7396032-.3934921h3.0435244l2.7161217-12.3612149c.0919537-.3769023.4419388-.637039.8352759-.6208434s.720042.3041949.7797153.6873405l2.6794173 15.8494163 2.2815422-7.8365274c.0975649-.3389659.4100571-.5742888.7678549-.5782348h.0161499c.3539283.0001108.6677674.223998.7781321.5551054l1.4549603 4.309295h1.9937801c.3933781-1.1767471 1.6249789-1.8717366 2.8550238-1.6110832 1.2300448.2606534 2.0622341 1.3929716 1.9291316 2.6248726-.1331025 1.2319011-1.1886135 2.1664873-2.4468226 2.1665021z" fill="#387ed1" transform="translate(163 63)"/></g></svg>